<?xml version="1.0" encoding="UTF-8"?>
<svg width="128" height="128" viewBox="0 0 128 128" xmlns="http://www.w3.org/2000/svg">
  <!-- Background Circle -->
  <circle cx="64" cy="64" r="60" fill="#4CAF50"/>
  
  <!-- Leaf Shape -->
  <path d="M64 20 C40 20 20 40 20 64 C20 88 40 108 64 108 C88 108 108 88 108 64 C108 40 88 20 64 20 Z" 
        fill="#45a049"/>
  
  <!-- Leaf Veins -->
  <path d="M64 20 L64 108 M40 40 L88 88 M40 88 L88 40" 
        stroke="#ffffff" 
        stroke-width="4" 
        stroke-linecap="round"/>
  
  <!-- Center Circle -->
  <circle cx="64" cy="64" r="20" fill="#ffffff"/>
  
  <!-- Leaf Tips -->
  <path d="M64 20 C40 20 20 40 20 64" 
        stroke="#ffffff" 
        stroke-width="4" 
        fill="none"/>
  <path d="M64 108 C88 108 108 88 108 64" 
        stroke="#ffffff" 
        stroke-width="4" 
        fill="none"/>
</svg> 